<svg xmlns="http://www.w3.org/2000/svg" version="1.1" xmlns:xlink="http://www.w3.org/1999/xlink" xmlns:svgjs="http://svgjs.dev/svgjs" width="2000" height="1247" viewBox="0 0 2000 1247"><g transform="matrix(1,0,0,1,-1.2121212121212466,239.70369328916684)"><svg viewBox="0 0 396 247" data-background-color="#ffffff" preserveAspectRatio="xMidYMid meet" height="1247" width="2000" xmlns="http://www.w3.org/2000/svg" xmlns:xlink="http://www.w3.org/1999/xlink"><g id="tight-bounds" transform="matrix(1,0,0,1,0.2400000000000091,-0.09999999999999432)"><svg viewBox="0 0 395.52 247.2" height="247.2" width="395.52"><g><svg></svg></g><g><svg viewBox="0 0 395.52 247.2" height="247.2" width="395.52"><g transform="matrix(1,0,0,1,75.54432,65.65253652740165)"><svg viewBox="0 0 244.43135999999998 115.89492694519669" height="115.89492694519669" width="244.43135999999998"><g><svg viewBox="0 0 244.43135999999998 115.89492694519669" height="115.89492694519669" width="244.43135999999998"><g><svg viewBox="0 0 244.43135999999998 115.89492694519669" height="115.89492694519669" width="244.43135999999998"><g><svg viewBox="0 0 244.43135999999998 115.89492694519669" height="115.89492694519669" width="244.43135999999998"><g id="textblocktransform"><svg viewBox="0 0 244.43135999999998 115.89492694519669" height="115.89492694519669" width="244.43135999999998" id="textblock"><g><svg viewBox="0 0 244.43135999999998 62.50818571903022" height="62.50818571903022" width="244.43135999999998"><g transform="matrix(1,0,0,1,0,0)"><svg width="244.43135999999998" viewBox="3.85 -38.05 150.54 38.5" height="62.50818571903022" data-palette-color="#ee3e38"><path d="M34.35-34.6L39.2-34.6 39.2 0 34.65 0 34.65-25.8 23.15 0 19.95 0 8.4-25.85 8.4 0 3.85 0 3.85-34.6 8.75-34.6 21.55-6 34.35-34.6ZM45.2-13.8Q45.2-18 46.9-21.18 48.6-24.35 51.57-26.1 54.55-27.85 58.2-27.85L58.2-27.85Q61.8-27.85 64.45-26.3 67.1-24.75 68.4-22.4L68.4-22.4 68.4-27.4 73-27.4 73 0 68.4 0 68.4-5.1Q67.05-2.7 64.37-1.13 61.7 0.45 58.15 0.45L58.15 0.45Q54.5 0.45 51.55-1.35 48.6-3.15 46.9-6.4 45.2-9.65 45.2-13.8L45.2-13.8ZM68.4-13.75Q68.4-16.85 67.15-19.15 65.9-21.45 63.77-22.68 61.65-23.9 59.1-23.9L59.1-23.9Q56.55-23.9 54.45-22.7 52.35-21.5 51.1-19.2 49.85-16.9 49.85-13.8L49.85-13.8Q49.85-10.65 51.1-8.33 52.35-6 54.45-4.78 56.55-3.55 59.1-3.55L59.1-3.55Q61.65-3.55 63.77-4.78 65.9-6 67.15-8.33 68.4-10.65 68.4-13.75L68.4-13.75ZM85.25-22.95Q86.45-25.3 88.67-26.6 90.9-27.9 94.1-27.9L94.1-27.9 94.1-23.2 92.9-23.2Q85.25-23.2 85.25-14.9L85.25-14.9 85.25 0 80.7 0 80.7-27.4 85.25-27.4 85.25-22.95ZM112.04-23.65L104.89-23.65 104.89-7.5Q104.89-5.5 105.74-4.67 106.59-3.85 108.69-3.85L108.69-3.85 112.04-3.85 112.04 0 107.94 0Q104.14 0 102.24-1.75 100.34-3.5 100.34-7.5L100.34-7.5 100.34-23.65 96.79-23.65 96.79-27.4 100.34-27.4 100.34-34.3 104.89-34.3 104.89-27.4 112.04-27.4 112.04-23.65ZM119.89-31.85Q118.59-31.85 117.69-32.75 116.79-33.65 116.79-34.95L116.79-34.95Q116.79-36.25 117.69-37.15 118.59-38.05 119.89-38.05L119.89-38.05Q121.14-38.05 122.02-37.15 122.89-36.25 122.89-34.95L122.89-34.95Q122.89-33.65 122.02-32.75 121.14-31.85 119.89-31.85L119.89-31.85ZM117.54-27.4L122.09-27.4 122.09 0 117.54 0 117.54-27.4ZM143.19-27.9Q148.19-27.9 151.29-24.88 154.39-21.85 154.39-16.15L154.39-16.15 154.39 0 149.89 0 149.89-15.5Q149.89-19.6 147.84-21.78 145.79-23.95 142.24-23.95L142.24-23.95Q138.64-23.95 136.51-21.7 134.39-19.45 134.39-15.15L134.39-15.15 134.39 0 129.84 0 129.84-27.4 134.39-27.4 134.39-23.5Q135.74-25.6 138.06-26.75 140.39-27.9 143.19-27.9L143.19-27.9Z" opacity="1" transform="matrix(1,0,0,1,0,0)" fill="#ffffff" class="wordmark-text-0" data-fill-palette-color="primary" id="text-0"></path></svg></g></svg></g><g transform="matrix(1,0,0,1,0,77.264868170836)"><svg viewBox="0 0 244.43135999999998 38.63005877436068" height="38.63005877436068" width="244.43135999999998"><g transform="matrix(1,0,0,1,0,0)"><svg width="244.43135999999998" viewBox="4.45 -37.85 242.66000000000003 38.35" height="38.63005877436068" data-palette-color="#ee3e38"><path d="M4.45 0L4.45-37.85Q4.9-37.15 6.33-35.18 7.75-33.2 9.63-30.6 11.5-28 13.6-25.08 15.7-22.15 17.55-19.58 19.4-17 20.78-15.1 22.15-13.2 22.6-12.6L22.6-12.6Q22.75-12.85 23.55-13.95 24.35-15.05 25.53-16.7 26.7-18.35 28.2-20.43 29.7-22.5 31.28-24.68 32.85-26.85 34.38-29 35.9-31.15 37.2-32.93 38.5-34.7 39.43-36.02 40.35-37.35 40.75-37.85L40.75-37.85 40.75 0 34.95 0 34.95-20.3Q34.95-20.7 35.02-21.15 35.1-21.6 35.1-21.8L35.1-21.8Q34.65-21.2 33.68-19.78 32.7-18.35 31.43-16.53 30.15-14.7 28.75-12.68 27.35-10.65 26.1-8.85 24.85-7.05 23.9-5.68 22.95-4.3 22.6-3.75L22.6-3.75Q22.25-4.2 21.23-5.63 20.2-7.05 18.82-8.95 17.45-10.85 15.93-13 14.4-15.15 13.1-17 11.8-18.85 10.85-20.18 9.9-21.5 9.75-21.8L9.75-21.8Q9.75-21.6 9.83-21.15 9.9-20.7 9.9-20.3L9.9-20.3 9.9 0 4.45 0ZM74.85-10.25L74.85-10.25Q74.85-12.55 75.73-14.58 76.6-16.6 78.1-18.13 79.6-19.65 81.58-20.55 83.55-21.45 85.8-21.45L85.8-21.45Q87.3-21.45 88.55-21.08 89.8-20.7 90.7-20.15 91.6-19.6 92.15-19 92.7-18.4 92.9-17.95L92.9-17.95 93.1-20.9 97.2-20.9 97.2 0 92.9 0 92.9-2.65Q92.65-2.25 92.1-1.7 91.55-1.15 90.68-0.68 89.8-0.2 88.6 0.15 87.4 0.5 85.85 0.5L85.85 0.5Q83.45 0.5 81.43-0.38 79.4-1.25 77.95-2.73 76.5-4.2 75.68-6.15 74.85-8.1 74.85-10.25ZM79.15-10.5L79.15-10.5Q79.15-9.05 79.68-7.8 80.2-6.55 81.1-5.65 82-4.75 83.25-4.23 84.5-3.7 86-3.7L86-3.7Q87.5-3.7 88.78-4.23 90.05-4.75 90.98-5.68 91.9-6.6 92.4-7.83 92.9-9.05 92.9-10.5L92.9-10.5Q92.9-11.95 92.4-13.18 91.9-14.4 90.98-15.3 90.05-16.2 88.78-16.73 87.5-17.25 86-17.25L86-17.25Q84.5-17.25 83.25-16.73 82-16.2 81.1-15.3 80.2-14.4 79.68-13.18 79.15-11.95 79.15-10.5ZM131.75-28.9L131.75-28.9Q131.75-30.1 132.63-30.9 133.5-31.7 134.5-31.7L134.5-31.7Q135.5-31.7 136.35-30.9 137.2-30.1 137.2-28.9L137.2-28.9Q137.2-27.7 136.35-26.93 135.5-26.15 134.5-26.15L134.5-26.15Q133.5-26.15 132.63-26.93 131.75-27.7 131.75-28.9ZM136.55-20.9L136.55 0 132.3 0 132.3-20.9 136.55-20.9ZM171.66 0L171.66-20.9 175.41-20.9Q175.51-19.35 175.58-18.07 175.66-16.8 175.76-15.55L175.76-15.55Q176.91-18.25 179.03-19.85 181.16-21.45 184.26-21.45L184.26-21.45Q187.41-21.45 189.31-19.7 191.21-17.95 191.31-15.2L191.31-15.2 191.31 0 187.01 0 187.01-13.25Q186.91-14.85 185.91-15.98 184.91-17.1 182.76-17.2L182.76-17.2Q181.26-17.2 180.01-16.68 178.76-16.15 177.86-15.25 176.96-14.35 176.43-13.1 175.91-11.85 175.91-10.35L175.91-10.35 175.91 0 171.66 0ZM224.76-10.25L224.76-10.25Q224.76-12.55 225.63-14.58 226.51-16.6 228.01-18.13 229.51-19.65 231.48-20.55 233.46-21.45 235.71-21.45L235.71-21.45Q237.21-21.45 238.46-21.08 239.71-20.7 240.61-20.15 241.51-19.6 242.06-19 242.61-18.4 242.81-17.95L242.81-17.95 243.01-20.9 247.11-20.9 247.11 0 242.81 0 242.81-2.65Q242.56-2.25 242.01-1.7 241.46-1.15 240.58-0.68 239.71-0.2 238.51 0.15 237.31 0.5 235.76 0.5L235.76 0.5Q233.36 0.5 231.33-0.38 229.31-1.25 227.86-2.73 226.41-4.2 225.58-6.15 224.76-8.1 224.76-10.25ZM229.06-10.5L229.06-10.5Q229.06-9.05 229.58-7.8 230.11-6.55 231.01-5.65 231.91-4.75 233.16-4.23 234.41-3.7 235.91-3.7L235.91-3.7Q237.41-3.7 238.68-4.23 239.96-4.75 240.88-5.68 241.81-6.6 242.31-7.83 242.81-9.05 242.81-10.5L242.81-10.5Q242.81-11.95 242.31-13.18 241.81-14.4 240.88-15.3 239.96-16.2 238.68-16.73 237.41-17.25 235.91-17.25L235.91-17.25Q234.41-17.25 233.16-16.73 231.91-16.2 231.01-15.3 230.11-14.4 229.58-13.18 229.06-11.95 229.06-10.5Z" opacity="1" transform="matrix(1,0,0,1,0,0)" fill="#ffffff" class="slogan-text-1" data-fill-palette-color="secondary" id="text-1"></path></svg></g></svg></g></svg></g></svg></g><g></g></svg></g></svg></g></svg></g><g><path d="M99.522 50.896A122.216 122.216 0 0 1 295.998 50.896L290.361 50.896A116.579 116.579 0 0 0 105.159 50.896L99.522 50.896M99.522 196.304A122.216 122.216 0 0 0 295.998 196.304L290.361 196.304A116.579 116.579 0 0 1 105.159 196.304L99.522 196.304" fill="#ffffff" stroke="transparent" data-fill-palette-color="tertiary"></path></g></svg></g><defs></defs></svg><rect width="395.52" height="247.2" fill="none" stroke="none" visibility="hidden"></rect></g></svg></g></svg>